<?xml version="1.0" encoding="UTF-8" standalone="no"?>
<svg
   xmlns:ns1="http://www.iki.fi/pav/software/textext/"
   xmlns:dc="http://purl.org/dc/elements/1.1/"
   xmlns:cc="http://creativecommons.org/ns#"
   xmlns:rdf="http://www.w3.org/1999/02/22-rdf-syntax-ns#"
   xmlns:svg="http://www.w3.org/2000/svg"
   xmlns="http://www.w3.org/2000/svg"
   xmlns:sodipodi="http://sodipodi.sourceforge.net/DTD/sodipodi-0.dtd"
   xmlns:inkscape="http://www.inkscape.org/namespaces/inkscape"
   width="210mm"
   height="297mm"
   viewBox="0 0 210 297"
   version="1.1"
   id="svg2003"
   sodipodi:docname="analytic_continuation.svg"
   inkscape:version="0.92.3 (2405546, 2018-03-11)">
  <sodipodi:namedview
     pagecolor="#ffffff"
     bordercolor="#666666"
     borderopacity="1"
     objecttolerance="10"
     gridtolerance="10"
     guidetolerance="10"
     inkscape:pageopacity="0"
     inkscape:pageshadow="2"
     inkscape:window-width="1366"
     inkscape:window-height="703"
     id="namedview38"
     showgrid="false"
     inkscape:zoom="2.3786088"
     inkscape:cx="313.34153"
     inkscape:cy="561.25984"
     inkscape:window-x="0"
     inkscape:window-y="0"
     inkscape:window-maximized="1"
     inkscape:current-layer="svg2003" />
  <defs
     id="defs1997" />
  <metadata
     id="metadata2000">
    <rdf:RDF>
      <cc:Work
         rdf:about="">
        <dc:format>image/svg+xml</dc:format>
        <dc:type
           rdf:resource="http://purl.org/dc/dcmitype/StillImage" />
        <dc:title />
      </cc:Work>
    </rdf:RDF>
  </metadata>
  <g
     id="layer1">
    <g
       id="g346"
       transform="matrix(0.35277777,0,0,-0.35277777,56.17147,162.08209)">
      <path
         d="m 0,0 c -4.75,4.75 -1.886,13.544 0.647,19 2.807,6.046 11.228,22.238 23.318,33.25 12.091,11.011 22.023,16.193 30.012,16.193 7.988,0 21.591,-3.239 21.591,-12.955 0,-9.715 -9.715,-15.761 -12.739,-17.92 C 59.806,35.409 41.023,20.726 33.034,12.091 25.045,3.455 8.204,-8.205 0,0 Z m 36.272,63.261 c 2.666,7.999 8.205,14.035 16.625,15.546 8.421,1.511 25.477,-0.648 32.171,-6.046 6.693,-5.398 30.011,-27.852 37.784,-41.454 7.772,-13.602 12.092,-39.08 -3.886,-39.08 -15.978,0 -17.272,2.375 -25.478,12.523 -8.205,10.147 -20.727,26.988 -25.909,31.091 -5.182,4.102 -14.682,9.068 -21.807,9.068 -7.125,0 -13.17,7.341 -9.5,18.352 z M 13.386,2.806 c 0,9.5 14.034,18.569 28.068,18.569 14.034,0 49.875,0 63.694,-13.819 13.818,-13.818 2.159,-20.295 -9.285,-20.295 -11.443,0 -59.159,0.865 -69.738,4.535 -10.58,3.67 -12.739,6.908 -12.739,11.01 z"
         style="fill:none;stroke:#231f20;stroke-width:0.5;stroke-linecap:butt;stroke-linejoin:miter;stroke-miterlimit:4;stroke-dasharray:4, 2;stroke-dashoffset:0;stroke-opacity:1"
         id="path348" />
    </g>
  </g>
  <g
     id="g2726"
     ns1:jacobian_sqrt="0.264583"
     ns1:alignment="middle center"
     ns1:scale="0.750000000002"
     ns1:preamble="/home/ernesto/.config/inkscape/extensions/textext/default_packages.tex"
     ns1:text="\\begin{minipage}{8cm}\n\\[\nD_1\n\\]\n\\end{minipage}"
     ns1:pdfconverter="pdf2svg"
     ns1:texconverter="pdflatex"
     ns1:version="0.9.0"
     transform="matrix(0.264583,0,0,0.264583,-3.6664874,115.04545)">
    <g
       id="g2724">
      <g
         id="g2718"
         style="fill:#000000;fill-opacity:1">
        <path
           id="path2716"
           transform="translate(255.739,137.504)"
           d="m 1.578125,-0.78125 c -0.09375,0.390625 -0.109375,0.46875 -0.90625,0.46875 -0.15625,0 -0.265625,0 -0.265625,0.1875 C 0.40625,0 0.484375,0 0.671875,0 h 3.3125 c 2.0625,0 4.03125,-2.109375 4.03125,-4.28125 0,-1.40625 -0.84375,-2.53125 -2.34375,-2.53125 h -3.34375 c -0.1875,0 -0.296875,0 -0.296875,0.1875 0,0.125 0.078125,0.125 0.28125,0.125 0.125,0 0.3125,0.015625 0.421875,0.015625 0.171875,0.03125 0.21875,0.046875 0.21875,0.171875 0,0.03125 0,0.0625 -0.03125,0.1875 z M 3.734375,-6.125 C 3.828125,-6.46875 3.84375,-6.5 4.28125,-6.5 h 1.0625 c 0.96875,0 1.796875,0.53125 1.796875,1.84375 0,0.484375 -0.1875,2.125 -1.046875,3.21875 -0.28125,0.375 -1.0625,1.125 -2.296875,1.125 h -1.125 c -0.140625,0 -0.15625,0 -0.21875,0 -0.09375,-0.015625 -0.125,-0.03125 -0.125,-0.109375 0,-0.03125 0,-0.046875 0.046875,-0.21875 z m 0,0"
           style="stroke:none;stroke-width:0" />
      </g>
      <g
         id="g2722"
         style="fill:#000000;fill-opacity:1">
        <path
           id="path2720"
           transform="translate(263.988,138.999)"
           d="m 2.328125,-4.4375 c 0,-0.1875 0,-0.1875 -0.203125,-0.1875 -0.453125,0.4375 -1.078125,0.4375 -1.359375,0.4375 v 0.25 c 0.15625,0 0.625,0 1,-0.1875 v 3.546875 c 0,0.234375 0,0.328125 -0.6875,0.328125 H 0.8125 V 0 c 0.125,0 0.984375,-0.03125 1.234375,-0.03125 0.21875,0 1.09375,0.03125 1.25,0.03125 V -0.25 H 3.03125 c -0.703125,0 -0.703125,-0.09375 -0.703125,-0.328125 z m 0,0"
           style="stroke:none;stroke-width:0" />
      </g>
    </g>
  </g>
  <g
     transform="matrix(0.264583,0,0,0.264583,20.873026,114.76197)"
     ns1:version="0.9.0"
     ns1:texconverter="pdflatex"
     ns1:pdfconverter="pdf2svg"
     ns1:text="\\begin{minipage}{8cm}\n\\[\nD_2\n\\]\n\\end{minipage}"
     ns1:preamble="/home/ernesto/.config/inkscape/extensions/textext/default_packages.tex"
     ns1:scale="0.750000000002"
     ns1:alignment="middle center"
     ns1:jacobian_sqrt="0.264583"
     id="g2816">
    <g
       id="g2814">
      <g
         style="fill:#000000;fill-opacity:1"
         id="g2808">
        <path
           style="stroke:none;stroke-width:0"
           d="m 1.578125,-0.78125 c -0.09375,0.390625 -0.109375,0.46875 -0.90625,0.46875 -0.15625,0 -0.265625,0 -0.265625,0.1875 C 0.40625,0 0.484375,0 0.671875,0 h 3.3125 c 2.0625,0 4.03125,-2.109375 4.03125,-4.28125 0,-1.40625 -0.84375,-2.53125 -2.34375,-2.53125 h -3.34375 c -0.1875,0 -0.296875,0 -0.296875,0.1875 0,0.125 0.078125,0.125 0.28125,0.125 0.125,0 0.3125,0.015625 0.421875,0.015625 0.171875,0.03125 0.21875,0.046875 0.21875,0.171875 0,0.03125 0,0.0625 -0.03125,0.1875 z M 3.734375,-6.125 C 3.828125,-6.46875 3.84375,-6.5 4.28125,-6.5 h 1.0625 c 0.96875,0 1.796875,0.53125 1.796875,1.84375 0,0.484375 -0.1875,2.125 -1.046875,3.21875 -0.28125,0.375 -1.0625,1.125 -2.296875,1.125 h -1.125 c -0.140625,0 -0.15625,0 -0.21875,0 -0.09375,-0.015625 -0.125,-0.03125 -0.125,-0.109375 0,-0.03125 0,-0.046875 0.046875,-0.21875 z m 0,0"
           transform="translate(255.739,137.504)"
           id="path2806" />
      </g>
      <g
         style="fill:#000000;fill-opacity:1"
         id="g2812">
        <path
           style="stroke:none;stroke-width:0"
           d="M 3.515625,-1.265625 H 3.28125 c -0.015625,0.15625 -0.09375,0.5625 -0.1875,0.625 C 3.046875,-0.59375 2.515625,-0.59375 2.40625,-0.59375 H 1.125 c 0.734375,-0.640625 0.984375,-0.84375 1.390625,-1.171875 0.515625,-0.40625 1,-0.84375 1,-1.5 0,-0.84375 -0.734375,-1.359375 -1.625,-1.359375 -0.859375,0 -1.453125,0.609375 -1.453125,1.25 0,0.34375 0.296875,0.390625 0.375,0.390625 0.15625,0 0.359375,-0.125 0.359375,-0.375 0,-0.125 -0.046875,-0.375 -0.40625,-0.375 C 0.984375,-4.21875 1.453125,-4.375 1.78125,-4.375 c 0.703125,0 1.0625,0.546875 1.0625,1.109375 0,0.609375 -0.4375,1.078125 -0.65625,1.328125 L 0.515625,-0.265625 C 0.4375,-0.203125 0.4375,-0.1875 0.4375,0 h 2.875 z m 0,0"
           transform="translate(263.988,138.999)"
           id="path2810" />
      </g>
    </g>
  </g>
  <g
     id="g2918"
     ns1:jacobian_sqrt="0.264583"
     ns1:alignment="middle center"
     ns1:scale="0.750000000002"
     ns1:preamble="/home/ernesto/.config/inkscape/extensions/textext/default_packages.tex"
     ns1:text="\\begin{minipage}{8cm}\n\\[\nD_3\n\\]\n\\end{minipage}"
     ns1:pdfconverter="pdf2svg"
     ns1:texconverter="pdflatex"
     ns1:version="0.9.0"
     transform="matrix(0.264583,0,0,0.264583,8.4860386,124.85423)">
    <g
       id="g2916">
      <g
         id="g2910"
         style="fill:#000000;fill-opacity:1">
        <path
           id="path2908"
           transform="translate(255.739,137.504)"
           d="m 1.578125,-0.78125 c -0.09375,0.390625 -0.109375,0.46875 -0.90625,0.46875 -0.15625,0 -0.265625,0 -0.265625,0.1875 C 0.40625,0 0.484375,0 0.671875,0 h 3.3125 c 2.0625,0 4.03125,-2.109375 4.03125,-4.28125 0,-1.40625 -0.84375,-2.53125 -2.34375,-2.53125 h -3.34375 c -0.1875,0 -0.296875,0 -0.296875,0.1875 0,0.125 0.078125,0.125 0.28125,0.125 0.125,0 0.3125,0.015625 0.421875,0.015625 0.171875,0.03125 0.21875,0.046875 0.21875,0.171875 0,0.03125 0,0.0625 -0.03125,0.1875 z M 3.734375,-6.125 C 3.828125,-6.46875 3.84375,-6.5 4.28125,-6.5 h 1.0625 c 0.96875,0 1.796875,0.53125 1.796875,1.84375 0,0.484375 -0.1875,2.125 -1.046875,3.21875 -0.28125,0.375 -1.0625,1.125 -2.296875,1.125 h -1.125 c -0.140625,0 -0.15625,0 -0.21875,0 -0.09375,-0.015625 -0.125,-0.03125 -0.125,-0.109375 0,-0.03125 0,-0.046875 0.046875,-0.21875 z m 0,0"
           style="stroke:none;stroke-width:0" />
      </g>
      <g
         id="g2914"
         style="fill:#000000;fill-opacity:1">
        <path
           id="path2912"
           transform="translate(263.988,138.999)"
           d="m 1.90625,-2.328125 c 0.546875,0 0.9375,0.375 0.9375,1.125 0,0.859375 -0.515625,1.125 -0.90625,1.125 -0.28125,0 -0.90625,-0.078125 -1.1875,-0.5 0.328125,0 0.40625,-0.234375 0.40625,-0.390625 0,-0.21875 -0.171875,-0.375 -0.390625,-0.375 -0.1875,0 -0.390625,0.125 -0.390625,0.40625 0,0.65625 0.71875,1.078125 1.5625,1.078125 0.96875,0 1.640625,-0.65625 1.640625,-1.34375 0,-0.546875 -0.4375,-1.09375 -1.203125,-1.25 0.71875,-0.265625 0.984375,-0.78125 0.984375,-1.21875 0,-0.546875 -0.625,-0.953125 -1.40625,-0.953125 -0.765625,0 -1.359375,0.375 -1.359375,0.9375 0,0.234375 0.15625,0.359375 0.359375,0.359375 0.21875,0 0.359375,-0.15625 0.359375,-0.34375 0,-0.203125 -0.140625,-0.359375 -0.359375,-0.375 0.25,-0.296875 0.71875,-0.375 0.984375,-0.375 0.3125,0 0.75,0.15625 0.75,0.75 0,0.296875 -0.09375,0.625 -0.28125,0.828125 -0.21875,0.265625 -0.421875,0.28125 -0.765625,0.3125 -0.171875,0.015625 -0.1875,0.015625 -0.21875,0.015625 -0.015625,0 -0.078125,0.015625 -0.078125,0.09375 0,0.09375 0.0625,0.09375 0.1875,0.09375 z m 0,0"
           style="stroke:none;stroke-width:0" />
      </g>
    </g>
  </g>
  <g
     id="g890"
     ns1:jacobian_sqrt="0.264583"
     ns1:alignment="middle center"
     ns1:scale="0.750000000002"
     ns1:preamble="/home/ernesto/.config/inkscape/extensions/textext/default_packages.tex"
     ns1:text="\\begin{minipage}{8cm}\n\\[\nD_1\\cap D_2\n\\]\n\\end{minipage}"
     ns1:pdfconverter="pdf2svg"
     ns1:texconverter="pdflatex"
     ns1:version="0.9.0"
     transform="matrix(0.264583,0.000000,0.000000,0.264583,6.432550,107.152600)">
    <g
       id="surface1">
      <g
         id="g871"
         style="fill:rgb(0%,0%,0%);fill-opacity:1;">
        <path
           id="path869"
           transform="translate(243.846,137.504)"
           d="M 1.578125 -0.78125 C 1.484375 -0.390625 1.46875 -0.3125 0.671875 -0.3125 C 0.515625 -0.3125 0.40625 -0.3125 0.40625 -0.125 C 0.40625 0 0.484375 0 0.671875 0 L 3.984375 0 C 6.046875 0 8.015625 -2.109375 8.015625 -4.28125 C 8.015625 -5.6875 7.171875 -6.8125 5.671875 -6.8125 L 2.328125 -6.8125 C 2.140625 -6.8125 2.03125 -6.8125 2.03125 -6.625 C 2.03125 -6.5 2.109375 -6.5 2.3125 -6.5 C 2.4375 -6.5 2.625 -6.484375 2.734375 -6.484375 C 2.90625 -6.453125 2.953125 -6.4375 2.953125 -6.3125 C 2.953125 -6.28125 2.953125 -6.25 2.921875 -6.125 Z M 3.734375 -6.125 C 3.828125 -6.46875 3.84375 -6.5 4.28125 -6.5 L 5.34375 -6.5 C 6.3125 -6.5 7.140625 -5.96875 7.140625 -4.65625 C 7.140625 -4.171875 6.953125 -2.53125 6.09375 -1.4375 C 5.8125 -1.0625 5.03125 -0.3125 3.796875 -0.3125 L 2.671875 -0.3125 C 2.53125 -0.3125 2.515625 -0.3125 2.453125 -0.3125 C 2.359375 -0.328125 2.328125 -0.34375 2.328125 -0.421875 C 2.328125 -0.453125 2.328125 -0.46875 2.375 -0.640625 Z M 3.734375 -6.125 "
           style="stroke:none;stroke-width:0" />
      </g>
      <g
         id="g875"
         style="fill:rgb(0%,0%,0%);fill-opacity:1;">
        <path
           id="path873"
           transform="translate(252.094,138.999)"
           d="M 2.328125 -4.4375 C 2.328125 -4.625 2.328125 -4.625 2.125 -4.625 C 1.671875 -4.1875 1.046875 -4.1875 0.765625 -4.1875 L 0.765625 -3.9375 C 0.921875 -3.9375 1.390625 -3.9375 1.765625 -4.125 L 1.765625 -0.578125 C 1.765625 -0.34375 1.765625 -0.25 1.078125 -0.25 L 0.8125 -0.25 L 0.8125 0 C 0.9375 0 1.796875 -0.03125 2.046875 -0.03125 C 2.265625 -0.03125 3.140625 0 3.296875 0 L 3.296875 -0.25 L 3.03125 -0.25 C 2.328125 -0.25 2.328125 -0.34375 2.328125 -0.578125 Z M 2.328125 -4.4375 "
           style="stroke:none;stroke-width:0" />
      </g>
      <g
         id="g879"
         style="fill:rgb(0%,0%,0%);fill-opacity:1;">
        <path
           id="path877"
           transform="translate(258.777,137.504)"
           d="M 6.09375 -3.78125 C 6.09375 -5.296875 4.5625 -5.96875 3.3125 -5.96875 C 2.03125 -5.96875 0.546875 -5.265625 0.546875 -3.796875 L 0.546875 -0.140625 C 0.546875 0.046875 0.546875 0.21875 0.75 0.21875 C 0.953125 0.21875 0.953125 0.046875 0.953125 -0.140625 L 0.953125 -3.75 C 0.953125 -5.25 2.578125 -5.5625 3.3125 -5.5625 C 3.765625 -5.5625 4.390625 -5.46875 4.921875 -5.140625 C 5.6875 -4.640625 5.6875 -4 5.6875 -3.734375 L 5.6875 -0.140625 C 5.6875 0.046875 5.6875 0.21875 5.890625 0.21875 C 6.09375 0.21875 6.09375 0.046875 6.09375 -0.140625 Z M 6.09375 -3.78125 "
           style="stroke:none;stroke-width:0" />
      </g>
      <g
         id="g883"
         style="fill:rgb(0%,0%,0%);fill-opacity:1;">
        <path
           id="path881"
           transform="translate(267.633,137.504)"
           d="M 1.578125 -0.78125 C 1.484375 -0.390625 1.46875 -0.3125 0.671875 -0.3125 C 0.515625 -0.3125 0.40625 -0.3125 0.40625 -0.125 C 0.40625 0 0.484375 0 0.671875 0 L 3.984375 0 C 6.046875 0 8.015625 -2.109375 8.015625 -4.28125 C 8.015625 -5.6875 7.171875 -6.8125 5.671875 -6.8125 L 2.328125 -6.8125 C 2.140625 -6.8125 2.03125 -6.8125 2.03125 -6.625 C 2.03125 -6.5 2.109375 -6.5 2.3125 -6.5 C 2.4375 -6.5 2.625 -6.484375 2.734375 -6.484375 C 2.90625 -6.453125 2.953125 -6.4375 2.953125 -6.3125 C 2.953125 -6.28125 2.953125 -6.25 2.921875 -6.125 Z M 3.734375 -6.125 C 3.828125 -6.46875 3.84375 -6.5 4.28125 -6.5 L 5.34375 -6.5 C 6.3125 -6.5 7.140625 -5.96875 7.140625 -4.65625 C 7.140625 -4.171875 6.953125 -2.53125 6.09375 -1.4375 C 5.8125 -1.0625 5.03125 -0.3125 3.796875 -0.3125 L 2.671875 -0.3125 C 2.53125 -0.3125 2.515625 -0.3125 2.453125 -0.3125 C 2.359375 -0.328125 2.328125 -0.34375 2.328125 -0.421875 C 2.328125 -0.453125 2.328125 -0.46875 2.375 -0.640625 Z M 3.734375 -6.125 "
           style="stroke:none;stroke-width:0" />
      </g>
      <g
         id="g887"
         style="fill:rgb(0%,0%,0%);fill-opacity:1;">
        <path
           id="path885"
           transform="translate(275.881,138.999)"
           d="M 3.515625 -1.265625 L 3.28125 -1.265625 C 3.265625 -1.109375 3.1875 -0.703125 3.09375 -0.640625 C 3.046875 -0.59375 2.515625 -0.59375 2.40625 -0.59375 L 1.125 -0.59375 C 1.859375 -1.234375 2.109375 -1.4375 2.515625 -1.765625 C 3.03125 -2.171875 3.515625 -2.609375 3.515625 -3.265625 C 3.515625 -4.109375 2.78125 -4.625 1.890625 -4.625 C 1.03125 -4.625 0.4375 -4.015625 0.4375 -3.375 C 0.4375 -3.03125 0.734375 -2.984375 0.8125 -2.984375 C 0.96875 -2.984375 1.171875 -3.109375 1.171875 -3.359375 C 1.171875 -3.484375 1.125 -3.734375 0.765625 -3.734375 C 0.984375 -4.21875 1.453125 -4.375 1.78125 -4.375 C 2.484375 -4.375 2.84375 -3.828125 2.84375 -3.265625 C 2.84375 -2.65625 2.40625 -2.1875 2.1875 -1.9375 L 0.515625 -0.265625 C 0.4375 -0.203125 0.4375 -0.1875 0.4375 0 L 3.3125 0 Z M 3.515625 -1.265625 "
           style="stroke:none;stroke-width:0" />
      </g>
    </g>
  </g>
</svg>
